<svg width="81" height="80" viewBox="0 0 81 80" fill="none" xmlns="http://www.w3.org/2000/svg">
<g id="streamline:industry-innovation-and-infrastructure-solid" clip-path="url(#clip0_298_193)">
<path id="Vector" fill-rule="evenodd" clip-rule="evenodd" d="M41.6828 2.73145C41.3114 2.56251 40.9081 2.4751 40.5 2.4751C40.0919 2.4751 39.6886 2.56251 39.3171 2.73145L24.3286 9.55431L40.4886 16.9143L56.66 9.54859L41.6828 2.73145ZM21.6428 32.0572V14.6057L37.6428 21.8915V41.1772L23.3057 34.6572C22.8065 34.4302 22.3833 34.0643 22.0864 33.6033C21.7895 33.1422 21.6316 32.6055 21.6314 32.0572H21.6428ZM43.3571 70.4115V51.3257L58.5114 58.2286V77.5143L44.1914 70.9943C43.8786 70.8521 43.5998 70.6547 43.3571 70.4115ZM64.2257 77.5257V58.2286L80.2428 50.9372V68.3943C80.2427 68.9427 80.0847 69.4794 79.7879 69.9404C79.491 70.4014 79.0677 70.7673 78.5686 70.9943L64.2257 77.5257ZM37.6314 51.3257V70.4343C37.3937 70.6671 37.1172 70.8566 36.8143 70.9943L22.4714 77.5257V58.2286L37.6314 51.3257ZM16.7571 58.2286V77.5143L2.44284 70.9943C1.94369 70.7673 1.52041 70.4014 1.22353 69.9404C0.92665 69.4794 0.768707 68.9427 0.768555 68.3943V50.9429L16.7686 58.2286H16.7571ZM43.3457 41.1886V21.8857L59.3628 14.5943V32.0572C59.3627 32.6055 59.2047 33.1422 58.9079 33.6033C58.611 34.0643 58.1877 34.4302 57.6886 34.6572L43.3457 41.1886ZM60.1914 39.0743C60.5629 38.9054 60.9662 38.818 61.3743 38.818C61.7823 38.818 62.1857 38.9054 62.5571 39.0743L77.5285 45.8857L61.3571 53.2515L45.2143 45.8857L60.1971 39.0629L60.1914 39.0743ZM18.4428 39.0743C18.8143 38.9054 19.2176 38.818 19.6257 38.818C20.0338 38.818 20.4371 38.9054 20.8086 39.0743L35.78 45.8857L19.6143 53.2572L3.45998 45.8857L18.4428 39.0743Z" fill="#080808"/>
</g>
<defs>
<clipPath id="clip0_298_193">
<rect width="80" height="80" fill="white" transform="translate(0.5)"/>
</clipPath>
</defs>
</svg>
