<svg width="41" height="40" viewBox="0 0 41 40" fill="none" xmlns="http://www.w3.org/2000/svg">
<g id="Chield_check_fill">
<path id="Subtract" fill-rule="evenodd" clip-rule="evenodd" d="M31.1564 9.5667L22.4695 5.84373C21.2118 5.3047 19.7881 5.30469 18.5303 5.84373L9.84339 9.5667C9.23058 9.82933 8.83325 10.4319 8.83325 11.0986V19.8534C8.83325 23.0829 10.3929 26.1137 13.0209 27.9908L18.5625 31.949C19.7214 32.7769 21.2784 32.7769 22.4374 31.949L27.979 27.9908C30.6069 26.1137 32.1666 23.0829 32.1666 19.8534V11.0986C32.1666 10.4319 31.7693 9.82933 31.1564 9.5667ZM26.2808 15.6247C26.6258 15.1934 26.5559 14.5641 26.1246 14.2191C25.6934 13.8741 25.0641 13.944 24.7191 14.3753L18.7503 21.8362L16.207 19.2929C15.8165 18.9024 15.1833 18.9024 14.7928 19.2929C14.4023 19.6834 14.4023 20.3166 14.7928 20.7071L17.7311 23.6454C18.3633 24.2776 19.4046 24.2199 19.9631 23.5218L26.2808 15.6247Z" fill="#222222"/>
</g>
</svg>
