<svg width="81" height="80" viewBox="0 0 81 80" fill="none" xmlns="http://www.w3.org/2000/svg">
<g id="Group_fill">
<circle id="Ellipse 46" cx="40.5" cy="30" r="13.3333" fill="#33363F"/>
<ellipse id="Ellipse 47" cx="57.1666" cy="30" rx="10" ry="10" fill="#33363F"/>
<circle id="Ellipse 48" cx="23.8334" cy="30" r="10" fill="#33363F"/>
<path id="Subtract" fill-rule="evenodd" clip-rule="evenodd" d="M59.0615 60H69.3951C69.9867 60 70.4424 59.4897 70.3461 58.906C69.7349 55.1975 67.0102 43.3333 57.1668 43.3333C54.2132 43.3333 51.9005 44.4016 50.0935 45.9972C55.1193 49.2578 57.7179 54.9674 59.0615 60Z" fill="#33363F"/>
<path id="Subtract_2" fill-rule="evenodd" clip-rule="evenodd" d="M30.9065 45.9971C29.0996 44.4016 26.7869 43.3333 23.8333 43.3333C13.99 43.3333 11.2651 55.1975 10.6539 58.906C10.5576 59.4897 11.0133 60 11.6049 60H21.9385C23.2821 54.9674 25.8807 49.2578 30.9065 45.9971Z" fill="#33363F"/>
<path id="Rectangle 4160" d="M40.5 46.6667C54.9228 46.6667 56.8646 61.6439 57.126 65.6767C57.1618 66.2278 56.719 66.6667 56.1667 66.6667H24.8334C24.2811 66.6667 23.8383 66.2278 23.874 65.6767C24.1355 61.6439 26.0773 46.6667 40.5 46.6667Z" fill="#33363F"/>
</g>
</svg>
