<svg width="60" height="60" viewBox="0 0 60 60" fill="none" xmlns="http://www.w3.org/2000/svg">
<g id="Search_alt_fill">
<path id="Subtract" fill-rule="evenodd" clip-rule="evenodd" d="M27.5 45C37.165 45 45 37.165 45 27.5C45 17.835 37.165 10 27.5 10C17.835 10 10 17.835 10 27.5C10 37.165 17.835 45 27.5 45ZM27.5 16.5C26.0555 16.5 24.6251 16.7845 23.2905 17.3373C21.9559 17.8901 20.7433 18.7004 19.7218 19.7218C18.7004 20.7433 17.8901 21.9559 17.3373 23.2905C16.7845 24.6251 16.5 26.0555 16.5 27.5C16.5 28.0523 16.9477 28.5 17.5 28.5C18.0523 28.5 18.5 28.0523 18.5 27.5C18.5 26.3181 18.7328 25.1478 19.1851 24.0559C19.6374 22.9639 20.3003 21.9718 21.136 21.136C21.9718 20.3003 22.9639 19.6374 24.0558 19.1851C25.1478 18.7328 26.3181 18.5 27.5 18.5C28.0523 18.5 28.5 18.0523 28.5 17.5C28.5 16.9477 28.0523 16.5 27.5 16.5Z" fill="#222222"/>
<path id="Vector 109" d="M50 50L45 45" stroke="#222222" stroke-width="2" stroke-linecap="round"/>
</g>
</svg>
