<svg width="61" height="60" viewBox="0 0 61 60" fill="none" xmlns="http://www.w3.org/2000/svg">
<g id="group_share">
<path id="Ellipse 48" d="M23 15C23 15.9849 23.194 16.9602 23.5709 17.8701C23.9478 18.7801 24.5003 19.6069 25.1967 20.3033C25.8931 20.9997 26.7199 21.5522 27.6299 21.9291C28.5398 22.306 29.5151 22.5 30.5 22.5C31.4849 22.5 32.4602 22.306 33.3701 21.9291C34.2801 21.5522 35.1069 20.9997 35.8033 20.3033C36.4997 19.6069 37.0522 18.7801 37.4291 17.8701C37.806 16.9602 38 15.9849 38 15C38 14.0151 37.806 13.0398 37.4291 12.1299C37.0522 11.2199 36.4997 10.3931 35.8033 9.6967C35.1069 9.00026 34.2801 8.44781 33.3701 8.0709C32.4602 7.69399 31.4849 7.5 30.5 7.5C29.5151 7.5 28.5398 7.69399 27.6299 8.07091C26.7199 8.44782 25.8931 9.00026 25.1967 9.6967C24.5003 10.3931 23.9478 11.2199 23.5709 12.1299C23.194 13.0398 23 14.0151 23 15L23 15Z" stroke="#33363F" stroke-width="4"/>
<path id="Ellipse 49" d="M11.5947 34.7538C10.7417 35.2462 9.99408 35.9019 9.3945 36.6832C8.79493 37.4646 8.35513 38.3565 8.10021 39.3078C7.8453 40.2592 7.78026 41.2514 7.90882 42.2279C8.03738 43.2044 8.35701 44.146 8.84946 44.999C9.34192 45.8519 9.99756 46.5995 10.7789 47.1991C11.5603 47.7987 12.4522 48.2385 13.4035 48.4934C14.3549 48.7483 15.3471 48.8133 16.3236 48.6848C17.3001 48.5562 18.2417 48.2366 19.0947 47.7441C19.9476 47.2517 20.6952 46.596 21.2948 45.8147C21.8944 45.0333 22.3342 44.1414 22.5891 43.1901C22.844 42.2387 22.909 41.2465 22.7805 40.27C22.6519 39.2935 22.3323 38.3519 21.8398 37.4989C21.3474 36.646 20.6917 35.8984 19.9104 35.2988C19.129 34.6992 18.2371 34.2594 17.2858 34.0045C16.3344 33.7496 15.3422 33.6846 14.3657 33.8131C13.3892 33.9417 12.4476 34.2613 11.5947 34.7538L11.5947 34.7538Z" stroke="#33363F" stroke-width="4"/>
<path id="Ellipse 49_2" d="M49.4053 34.7538C50.2583 35.2462 51.0059 35.9019 51.6055 36.6832C52.2051 37.4646 52.6449 38.3565 52.8998 39.3078C53.1547 40.2592 53.2197 41.2514 53.0912 42.2279C52.9626 43.2044 52.643 44.146 52.1505 44.999C51.6581 45.8519 51.0024 46.5995 50.2211 47.1991C49.4397 47.7987 48.5478 48.2385 47.5965 48.4934C46.6451 48.7483 45.6529 48.8133 44.6764 48.6848C43.6999 48.5562 42.7583 48.2366 41.9053 47.7441C41.0524 47.2517 40.3048 46.596 39.7052 45.8147C39.1056 45.0333 38.6658 44.1414 38.4109 43.1901C38.156 42.2387 38.091 41.2465 38.2195 40.27C38.3481 39.2935 38.6677 38.3519 39.1602 37.4989C39.6526 36.646 40.3083 35.8984 41.0896 35.2988C41.871 34.6992 42.7629 34.2594 43.7142 34.0045C44.6656 33.7496 45.6578 33.6846 46.6343 33.8131C47.6108 33.9417 48.5524 34.2613 49.4054 34.7538L49.4053 34.7538Z" stroke="#33363F" stroke-width="4"/>
<path id="Subtract" fill-rule="evenodd" clip-rule="evenodd" d="M23 15.0437C22.9999 15.0294 22.9998 15.0151 22.9998 15.0008C22.9998 14.2388 23.1159 13.4826 23.343 12.758C23.0477 12.865 22.7545 12.9788 22.4636 13.0993C19.9158 14.1546 17.6008 15.7015 15.6507 17.6515C13.7007 19.6016 12.1539 21.9166 11.0985 24.4644C10.0432 27.0123 9.5 29.743 9.5 32.5008C9.5 33.735 9.6088 34.9638 9.8236 36.1732C10.3376 35.6142 10.9345 35.1355 11.5944 34.7545C11.6068 34.7474 11.6192 34.7402 11.6316 34.7332C11.5441 33.9937 11.5 33.2484 11.5 32.5008C11.5 30.0056 11.9914 27.535 12.9463 25.2298C13.9011 22.9246 15.3007 20.83 17.065 19.0657C18.7707 17.36 20.785 15.9953 23 15.0437ZM37.9997 15.0435C40.2148 15.9951 42.2292 17.3599 43.935 19.0657C45.6993 20.83 47.0989 22.9246 48.0537 25.2298C49.0085 27.5349 49.5 30.0056 49.5 32.5007C49.5 33.2484 49.4559 33.9939 49.3684 34.7333C49.3807 34.7404 49.393 34.7474 49.4053 34.7545C50.0653 35.1356 50.6623 35.6143 51.1763 36.1735C51.3912 34.964 51.5 33.7351 51.5 32.5007C51.5 29.743 50.9568 27.0122 49.9015 24.4644C48.8461 21.9166 47.2993 19.6015 45.3492 17.6515C43.3992 15.7015 41.0842 14.1546 38.5363 13.0993C38.2454 12.9788 37.9521 12.8649 37.6566 12.7578C37.8837 13.4825 37.9998 14.2387 37.9998 15.0008C37.9998 15.015 37.9998 15.0293 37.9997 15.0435ZM44.0204 48.5693C43.2789 48.4037 42.5655 48.1261 41.9053 47.7449C41.8932 47.7379 41.8812 47.7309 41.8691 47.7239C40.6079 48.6657 39.2318 49.4494 37.771 50.0545C35.4658 51.0093 32.9951 51.5008 30.5 51.5008C28.0049 51.5008 25.5342 51.0093 23.229 50.0545C21.7682 49.4494 20.3919 48.6657 19.1307 47.7238C19.1186 47.7308 19.1065 47.7379 19.0944 47.7449C18.4342 48.126 17.721 48.4036 16.9796 48.5693C18.6233 49.9524 20.4724 51.0774 22.4636 51.9022C25.0115 52.9576 27.7422 53.5008 30.5 53.5008C33.2578 53.5008 35.9885 52.9576 38.5364 51.9022C40.5276 51.0774 42.3766 49.9524 44.0204 48.5693Z" fill="#33363F"/>
</g>
</svg>
